<svg xmlns="http://www.w3.org/2000/svg" xmlns:xlink="http://www.w3.org/1999/xlink" width="500" zoomAndPan="magnify" viewBox="0 0 375 374.999991" height="500" preserveAspectRatio="xMidYMid meet" version="1.0"><defs><g/><clipPath id="dfc00c1fa9"><rect x="0" width="275" y="0" height="109"/></clipPath><clipPath id="be7f74e752"><rect x="0" width="255" y="0" height="22"/></clipPath></defs><g transform="matrix(1, 0, 0, 1, 51, 133)"><g clip-path="url(#dfc00c1fa9)"><g fill="#f8f6e3" fill-opacity="1"><g transform="translate(0.996233, 81.001205)"><g><path d="M 52.875 -46.609375 C 50.207031 -46.609375 47.8125 -47.21875 45.6875 -48.4375 C 43.5625 -49.664062 41.597656 -51.21875 39.796875 -53.09375 C 37.992188 -54.96875 36.316406 -56.894531 34.765625 -58.875 C 33.210938 -60.851562 31.675781 -62.582031 30.15625 -64.0625 C 28.644531 -65.539062 27.097656 -66.515625 25.515625 -66.984375 C 23.929688 -67.453125 22.238281 -67.109375 20.4375 -65.953125 C 18.34375 -64.660156 17.257812 -62.175781 17.1875 -58.5 C 17.113281 -54.820312 17.957031 -50.441406 19.71875 -45.359375 C 21.488281 -40.273438 24.035156 -35.03125 27.359375 -29.625 C 30.960938 -23.925781 34.707031 -19.222656 38.59375 -15.515625 C 42.488281 -11.804688 46.164062 -9.554688 49.625 -8.765625 C 52.875 -7.960938 55.832031 -8.082031 58.5 -9.125 C 61.164062 -10.175781 63.539062 -11.800781 65.625 -14 C 67.71875 -16.195312 69.414062 -18.554688 70.71875 -21.078125 L 72.875 -19.890625 C 70.925781 -15.859375 68.164062 -12.273438 64.59375 -9.140625 C 61.03125 -6.003906 57.015625 -3.570312 52.546875 -1.84375 C 48.078125 -0.113281 43.425781 0.75 38.59375 0.75 C 33.550781 0.75 28.8125 -0.21875 24.375 -2.15625 C 19.945312 -4.101562 16.054688 -6.789062 12.703125 -10.21875 C 9.347656 -13.644531 6.71875 -17.609375 4.8125 -22.109375 C 2.90625 -26.617188 1.953125 -31.46875 1.953125 -36.65625 C 1.953125 -41.84375 2.90625 -46.6875 4.8125 -51.1875 C 6.71875 -55.695312 9.347656 -59.664062 12.703125 -63.09375 C 16.054688 -66.519531 19.945312 -69.1875 24.375 -71.09375 C 28.8125 -73 33.550781 -73.953125 38.59375 -73.953125 C 41.332031 -73.953125 43.816406 -73.535156 46.046875 -72.703125 C 48.285156 -71.878906 50.34375 -70.910156 52.21875 -69.796875 C 54.09375 -68.679688 55.820312 -67.707031 57.40625 -66.875 C 59 -66.039062 60.476562 -65.625 61.84375 -65.625 C 64.507812 -65.625 66.253906 -66.328125 67.078125 -67.734375 C 67.910156 -69.140625 68.328125 -71.035156 68.328125 -73.421875 L 70.71875 -73.421875 C 71.144531 -70.460938 71.195312 -67.414062 70.875 -64.28125 C 70.550781 -61.144531 69.738281 -58.242188 68.4375 -55.578125 C 67.144531 -52.910156 65.234375 -50.75 62.703125 -49.09375 C 60.179688 -47.4375 56.90625 -46.609375 52.875 -46.609375 Z M 52.875 -46.609375 "/></g></g></g><g fill="#f8f6e3" fill-opacity="1"><g transform="translate(73.970684, 81.001205)"><g><path d="M 26.171875 0 L 2.484375 0 L 2.484375 -73.3125 L 26.171875 -73.3125 L 26.171875 -40.984375 C 27.679688 -41.191406 29.101562 -41.113281 30.4375 -40.75 C 31.769531 -40.394531 32.941406 -39.929688 33.953125 -39.359375 C 35.179688 -38.785156 36.28125 -38.265625 37.25 -37.796875 C 38.21875 -37.328125 39.132812 -37.019531 40 -36.875 L 40 -73.3125 L 63.6875 -73.3125 L 63.6875 0 L 40 0 L 40 -34.390625 C 38.851562 -34.523438 37.664062 -34.84375 36.4375 -35.34375 C 35.207031 -35.851562 33.984375 -36.4375 32.765625 -37.09375 C 31.535156 -37.664062 30.378906 -38.078125 29.296875 -38.328125 C 28.222656 -38.578125 27.179688 -38.597656 26.171875 -38.390625 Z M 26.171875 0 "/></g></g></g><g fill="#f8f6e3" fill-opacity="1"><g transform="translate(140.134186, 81.001205)"><g><path d="M 46.8125 -39.46875 L 44.984375 -36.65625 L 35.03125 -36.65625 C 29.40625 -36.65625 25.800781 -34.757812 24.21875 -30.96875 C 22.632812 -27.1875 23.5 -22.085938 26.8125 -15.671875 C 28.976562 -11.492188 31.59375 -8.503906 34.65625 -6.703125 C 37.71875 -4.898438 40.925781 -4.035156 44.28125 -4.109375 C 47.632812 -4.179688 50.894531 -5.007812 54.0625 -6.59375 C 57.226562 -8.175781 60.003906 -10.195312 62.390625 -12.65625 L 63.578125 -11.359375 C 61.410156 -8.972656 59.007812 -6.859375 56.375 -5.015625 C 53.75 -3.179688 50.6875 -1.757812 47.1875 -0.75 C 43.695312 0.25 39.5 0.75 34.59375 0.75 C 27.820312 0.75 22.003906 -0.113281 17.140625 -1.84375 C 12.273438 -3.570312 8.523438 -5.929688 5.890625 -8.921875 C 3.265625 -11.910156 1.953125 -15.390625 1.953125 -19.359375 C 1.953125 -22.890625 2.90625 -25.859375 4.8125 -28.265625 C 6.71875 -30.679688 9.328125 -32.664062 12.640625 -34.21875 C 15.960938 -35.769531 19.75 -36.90625 24 -37.625 C 20.113281 -38.632812 16.765625 -40.21875 13.953125 -42.375 C 11.140625 -44.539062 8.992188 -46.992188 7.515625 -49.734375 C 6.035156 -52.472656 5.238281 -55.265625 5.125 -58.109375 C 5.019531 -60.960938 5.722656 -63.578125 7.234375 -65.953125 C 8.753906 -68.335938 11.117188 -70.265625 14.328125 -71.734375 C 17.535156 -73.210938 21.660156 -73.953125 26.703125 -73.953125 C 29.367188 -73.953125 31.851562 -73.535156 34.15625 -72.703125 C 36.46875 -71.878906 38.578125 -70.910156 40.484375 -69.796875 C 42.398438 -68.679688 44.164062 -67.707031 45.78125 -66.875 C 47.40625 -66.039062 48.90625 -65.625 50.28125 -65.625 C 52.945312 -65.625 54.691406 -66.328125 55.515625 -67.734375 C 56.347656 -69.140625 56.765625 -71.035156 56.765625 -73.421875 L 59.140625 -73.421875 C 59.578125 -70.460938 59.628906 -67.414062 59.296875 -64.28125 C 58.972656 -61.144531 58.160156 -58.242188 56.859375 -55.578125 C 55.566406 -52.910156 53.660156 -50.75 51.140625 -49.09375 C 48.617188 -47.4375 45.335938 -46.609375 41.296875 -46.609375 C 38.628906 -46.609375 36.304688 -47.179688 34.328125 -48.328125 C 32.347656 -49.484375 30.597656 -50.941406 29.078125 -52.703125 C 27.566406 -54.472656 26.179688 -56.273438 24.921875 -58.109375 C 23.660156 -59.953125 22.398438 -61.554688 21.140625 -62.921875 C 19.878906 -64.296875 18.546875 -65.195312 17.140625 -65.625 C 15.734375 -66.0625 14.09375 -65.703125 12.21875 -64.546875 C 10.78125 -63.679688 9.789062 -62.273438 9.25 -60.328125 C 8.707031 -58.390625 8.738281 -56.226562 9.34375 -53.84375 C 9.957031 -51.46875 11.179688 -49.179688 13.015625 -46.984375 C 14.859375 -44.785156 17.398438 -42.984375 20.640625 -41.578125 C 23.890625 -40.171875 27.929688 -39.46875 32.765625 -39.46875 Z M 46.8125 -39.46875 "/></g></g></g><g fill="#f8f6e3" fill-opacity="1"><g transform="translate(199.378454, 81.001205)"><g><path d="M 27.6875 -35.359375 L 27.6875 -37.84375 C 31.425781 -37.84375 34.46875 -38.6875 36.8125 -40.375 C 39.15625 -42.070312 40.328125 -44.46875 40.328125 -47.5625 C 40.328125 -50.664062 38.632812 -54.273438 35.25 -58.390625 C 32.800781 -61.554688 29.914062 -63.894531 26.59375 -65.40625 C 23.28125 -66.925781 20.21875 -67.6875 17.40625 -67.6875 C 14.957031 -67.6875 13.191406 -67.269531 12.109375 -66.4375 C 11.023438 -65.613281 10.394531 -64.660156 10.21875 -63.578125 C 10.039062 -62.492188 10.128906 -61.484375 10.484375 -60.546875 C 10.992188 -59.253906 11.859375 -58.191406 13.078125 -57.359375 C 14.304688 -56.523438 15.660156 -55.691406 17.140625 -54.859375 C 18.617188 -54.035156 20.039062 -53.082031 21.40625 -52 C 22.78125 -50.925781 23.914062 -49.503906 24.8125 -47.734375 C 25.71875 -45.972656 26.171875 -43.6875 26.171875 -40.875 L 26.171875 0 L 2.484375 0 L 2.484375 -50.609375 C 2.484375 -55.285156 3.296875 -59.140625 4.921875 -62.171875 C 6.546875 -65.203125 8.65625 -67.582031 11.25 -69.3125 C 13.84375 -71.039062 16.613281 -72.265625 19.5625 -72.984375 C 22.519531 -73.703125 25.332031 -74.0625 28 -74.0625 C 34.78125 -74.0625 40.800781 -73.320312 46.0625 -71.84375 C 51.320312 -70.363281 55.484375 -68.179688 58.546875 -65.296875 C 61.609375 -62.421875 63.140625 -58.859375 63.140625 -54.609375 C 63.140625 -50.140625 61.425781 -46.460938 58 -43.578125 C 54.582031 -40.691406 49.988281 -38.597656 44.21875 -37.296875 C 46.8125 -36.503906 49.375 -34.921875 51.90625 -32.546875 C 53.78125 -30.671875 55.203125 -28.738281 56.171875 -26.75 C 57.140625 -24.769531 57.875 -22.859375 58.375 -21.015625 C 58.882812 -19.179688 59.390625 -17.507812 59.890625 -16 C 60.398438 -14.488281 61.125 -13.265625 62.0625 -12.328125 C 63.9375 -10.453125 65.789062 -9.710938 67.625 -10.109375 C 69.46875 -10.503906 71.21875 -11.566406 72.875 -13.296875 L 74.609375 -11.5625 C 72.804688 -9.1875 70.535156 -7.003906 67.796875 -5.015625 C 65.054688 -3.035156 62.097656 -1.5625 58.921875 -0.59375 C 55.753906 0.375 52.546875 0.554688 49.296875 -0.046875 C 46.054688 -0.660156 43.03125 -2.375 40.21875 -5.1875 C 38.34375 -7.0625 37.171875 -9.113281 36.703125 -11.34375 C 36.234375 -13.582031 36.125 -15.816406 36.375 -18.046875 C 36.632812 -20.285156 36.925781 -22.453125 37.25 -24.546875 C 37.570312 -26.640625 37.609375 -28.492188 37.359375 -30.109375 C 37.109375 -31.734375 36.28125 -33.015625 34.875 -33.953125 C 33.46875 -34.890625 31.070312 -35.359375 27.6875 -35.359375 Z M 27.6875 -35.359375 "/></g></g></g></g></g><g transform="matrix(1, 0, 0, 1, 67, 220)"><g clip-path="url(#be7f74e752)"><g fill="#f8f6e3" fill-opacity="1"><g transform="translate(1.734237, 17.250949)"><g><path d="M 5.296875 0 L 1.546875 0 C 1.328125 0 1.21875 -0.109375 1.21875 -0.328125 L 1.21875 -12.03125 C 1.21875 -12.25 1.328125 -12.359375 1.546875 -12.359375 L 5.296875 -12.359375 C 6.773438 -12.359375 8.003906 -12.113281 8.984375 -11.625 C 9.972656 -11.132812 10.710938 -10.429688 11.203125 -9.515625 C 11.691406 -8.597656 11.9375 -7.484375 11.9375 -6.171875 C 11.9375 -4.890625 11.695312 -3.785156 11.21875 -2.859375 C 10.738281 -1.941406 10.003906 -1.234375 9.015625 -0.734375 C 8.035156 -0.242188 6.796875 0 5.296875 0 Z M 4.0625 -9.9375 L 4.0625 -2.4375 L 5.296875 -2.4375 C 6.554688 -2.4375 7.507812 -2.765625 8.15625 -3.421875 C 8.8125 -4.085938 9.140625 -5.019531 9.140625 -6.21875 C 9.140625 -7.414062 8.8125 -8.332031 8.15625 -8.96875 C 7.507812 -9.613281 6.554688 -9.9375 5.296875 -9.9375 Z M 4.0625 -9.9375 "/></g></g></g><g fill="#f8f6e3" fill-opacity="1"><g transform="translate(19.000964, 17.250949)"><g><path d="M 3.703125 0 L 1.546875 0 C 1.328125 0 1.21875 -0.109375 1.21875 -0.328125 L 1.21875 -12.03125 C 1.21875 -12.25 1.328125 -12.359375 1.546875 -12.359375 L 3.703125 -12.359375 C 3.921875 -12.359375 4.03125 -12.25 4.03125 -12.03125 L 4.03125 -0.328125 C 4.03125 -0.109375 3.921875 0 3.703125 0 Z M 3.703125 0 "/></g></g></g><g fill="#f8f6e3" fill-opacity="1"><g transform="translate(28.823794, 17.250949)"><g><path d="M 7.34375 0.3125 C 6.363281 0.3125 5.46875 0.160156 4.65625 -0.140625 C 3.84375 -0.453125 3.144531 -0.890625 2.5625 -1.453125 C 1.976562 -2.023438 1.523438 -2.707031 1.203125 -3.5 C 0.878906 -4.300781 0.71875 -5.195312 0.71875 -6.1875 C 0.71875 -7.164062 0.878906 -8.050781 1.203125 -8.84375 C 1.523438 -9.644531 1.976562 -10.332031 2.5625 -10.90625 C 3.144531 -11.476562 3.84375 -11.914062 4.65625 -12.21875 C 5.46875 -12.519531 6.363281 -12.671875 7.34375 -12.671875 C 8.425781 -12.671875 9.40625 -12.476562 10.28125 -12.09375 C 11.164062 -11.707031 11.898438 -11.171875 12.484375 -10.484375 C 12.628906 -10.328125 12.613281 -10.179688 12.4375 -10.046875 L 10.671875 -8.84375 C 10.503906 -8.71875 10.351562 -8.738281 10.21875 -8.90625 C 9.875 -9.28125 9.457031 -9.570312 8.96875 -9.78125 C 8.476562 -10 7.9375 -10.109375 7.34375 -10.109375 C 6.78125 -10.109375 6.265625 -10.015625 5.796875 -9.828125 C 5.335938 -9.648438 4.9375 -9.390625 4.59375 -9.046875 C 4.257812 -8.703125 4 -8.285156 3.8125 -7.796875 C 3.625 -7.316406 3.53125 -6.78125 3.53125 -6.1875 C 3.53125 -5.5625 3.625 -5 3.8125 -4.5 C 4 -4.007812 4.257812 -3.585938 4.59375 -3.234375 C 4.9375 -2.878906 5.34375 -2.601562 5.8125 -2.40625 C 6.28125 -2.21875 6.789062 -2.125 7.34375 -2.125 C 7.914062 -2.125 8.4375 -2.222656 8.90625 -2.421875 C 9.382812 -2.628906 9.789062 -2.910156 10.125 -3.265625 L 10.125 -4.171875 L 7.703125 -4.171875 C 7.484375 -4.171875 7.375 -4.28125 7.375 -4.5 L 7.375 -6.140625 C 7.375 -6.359375 7.484375 -6.46875 7.703125 -6.46875 L 12.359375 -6.46875 C 12.578125 -6.46875 12.6875 -6.359375 12.6875 -6.140625 L 12.6875 -2.34375 C 12.6875 -2.195312 12.648438 -2.078125 12.578125 -1.984375 C 12.003906 -1.253906 11.265625 -0.6875 10.359375 -0.28125 C 9.460938 0.113281 8.457031 0.3125 7.34375 0.3125 Z M 7.34375 0.3125 "/></g></g></g><g fill="#f8f6e3" fill-opacity="1"><g transform="translate(46.975742, 17.250949)"><g><path d="M 3.703125 0 L 1.546875 0 C 1.328125 0 1.21875 -0.109375 1.21875 -0.328125 L 1.21875 -12.03125 C 1.21875 -12.25 1.328125 -12.359375 1.546875 -12.359375 L 3.703125 -12.359375 C 3.921875 -12.359375 4.03125 -12.25 4.03125 -12.03125 L 4.03125 -0.328125 C 4.03125 -0.109375 3.921875 0 3.703125 0 Z M 3.703125 0 "/></g></g></g><g fill="#f8f6e3" fill-opacity="1"><g transform="translate(56.798573, 17.250949)"><g><path d="M 5.703125 0 L 3.53125 0 C 3.3125 0 3.203125 -0.109375 3.203125 -0.328125 L 3.203125 -9.9375 L 0.625 -9.9375 C 0.40625 -9.9375 0.296875 -10.046875 0.296875 -10.265625 L 0.296875 -12.03125 C 0.296875 -12.25 0.40625 -12.359375 0.625 -12.359375 L 8.609375 -12.359375 C 8.828125 -12.359375 8.9375 -12.25 8.9375 -12.03125 L 8.9375 -10.265625 C 8.9375 -10.046875 8.828125 -9.9375 8.609375 -9.9375 L 6.03125 -9.9375 L 6.03125 -0.328125 C 6.03125 -0.109375 5.921875 0 5.703125 0 Z M 5.703125 0 "/></g></g></g><g fill="#f8f6e3" fill-opacity="1"><g transform="translate(69.317045, 17.250949)"><g><path d="M 6.578125 -12.359375 L 12.09375 -0.390625 C 12.144531 -0.273438 12.144531 -0.179688 12.09375 -0.109375 C 12.050781 -0.0351562 11.96875 0 11.84375 0 L 9.46875 0 C 9.28125 0 9.15625 -0.0820312 9.09375 -0.25 L 8.546875 -1.625 L 3.796875 -1.625 L 3.25 -0.25 C 3.1875 -0.0820312 3.0625 0 2.875 0 L 0.5 0 C 0.382812 0 0.300781 -0.0351562 0.25 -0.109375 C 0.195312 -0.179688 0.195312 -0.273438 0.25 -0.390625 L 5.765625 -12.359375 C 5.878906 -12.597656 6.015625 -12.71875 6.171875 -12.71875 C 6.335938 -12.71875 6.472656 -12.597656 6.578125 -12.359375 Z M 6.171875 -7.59375 L 4.65625 -3.796875 L 7.6875 -3.796875 Z M 6.171875 -7.59375 "/></g></g></g><g fill="#f8f6e3" fill-opacity="1"><g transform="translate(86.245779, 17.250949)"><g><path d="M 7.75 0 L 1.546875 0 C 1.328125 0 1.21875 -0.109375 1.21875 -0.328125 L 1.21875 -12.03125 C 1.21875 -12.25 1.328125 -12.359375 1.546875 -12.359375 L 3.703125 -12.359375 C 3.921875 -12.359375 4.03125 -12.25 4.03125 -12.03125 L 4.03125 -2.4375 L 7.75 -2.4375 C 7.96875 -2.4375 8.078125 -2.320312 8.078125 -2.09375 L 8.078125 -0.328125 C 8.078125 -0.109375 7.96875 0 7.75 0 Z M 7.75 0 "/></g></g></g><g fill="#f8f6e3" fill-opacity="1"><g transform="translate(99.191023, 17.250949)"><g/></g></g><g fill="#f8f6e3" fill-opacity="1"><g transform="translate(108.877046, 17.250949)"><g><path d="M 6.578125 -12.359375 L 12.09375 -0.390625 C 12.144531 -0.273438 12.144531 -0.179688 12.09375 -0.109375 C 12.050781 -0.0351562 11.96875 0 11.84375 0 L 9.46875 0 C 9.28125 0 9.15625 -0.0820312 9.09375 -0.25 L 8.546875 -1.625 L 3.796875 -1.625 L 3.25 -0.25 C 3.1875 -0.0820312 3.0625 0 2.875 0 L 0.5 0 C 0.382812 0 0.300781 -0.0351562 0.25 -0.109375 C 0.195312 -0.179688 0.195312 -0.273438 0.25 -0.390625 L 5.765625 -12.359375 C 5.878906 -12.597656 6.015625 -12.71875 6.171875 -12.71875 C 6.335938 -12.71875 6.472656 -12.597656 6.578125 -12.359375 Z M 6.171875 -7.59375 L 4.65625 -3.796875 L 7.6875 -3.796875 Z M 6.171875 -7.59375 "/></g></g></g><g fill="#f8f6e3" fill-opacity="1"><g transform="translate(125.80578, 17.250949)"><g><path d="M 3.640625 0 L 1.5625 0 C 1.34375 0 1.234375 -0.109375 1.234375 -0.328125 L 1.234375 -12.078125 C 1.234375 -12.367188 1.3125 -12.550781 1.46875 -12.625 C 1.632812 -12.695312 1.828125 -12.628906 2.046875 -12.421875 L 9.03125 -5.46875 L 9.03125 -12.03125 C 9.03125 -12.25 9.140625 -12.359375 9.359375 -12.359375 L 11.421875 -12.359375 C 11.648438 -12.359375 11.765625 -12.25 11.765625 -12.03125 L 11.765625 -0.296875 C 11.765625 -0.109375 11.722656 0.0351562 11.640625 0.140625 C 11.554688 0.242188 11.445312 0.285156 11.3125 0.265625 C 11.1875 0.242188 11.039062 0.15625 10.875 0 L 3.953125 -7.0625 L 3.953125 -0.328125 C 3.953125 -0.109375 3.847656 0 3.640625 0 Z M 3.640625 0 "/></g></g></g><g fill="#f8f6e3" fill-opacity="1"><g transform="translate(143.370264, 17.250949)"><g><path d="M 6.578125 -12.359375 L 12.09375 -0.390625 C 12.144531 -0.273438 12.144531 -0.179688 12.09375 -0.109375 C 12.050781 -0.0351562 11.96875 0 11.84375 0 L 9.46875 0 C 9.28125 0 9.15625 -0.0820312 9.09375 -0.25 L 8.546875 -1.625 L 3.796875 -1.625 L 3.25 -0.25 C 3.1875 -0.0820312 3.0625 0 2.875 0 L 0.5 0 C 0.382812 0 0.300781 -0.0351562 0.25 -0.109375 C 0.195312 -0.179688 0.195312 -0.273438 0.25 -0.390625 L 5.765625 -12.359375 C 5.878906 -12.597656 6.015625 -12.71875 6.171875 -12.71875 C 6.335938 -12.71875 6.472656 -12.597656 6.578125 -12.359375 Z M 6.171875 -7.59375 L 4.65625 -3.796875 L 7.6875 -3.796875 Z M 6.171875 -7.59375 "/></g></g></g><g fill="#f8f6e3" fill-opacity="1"><g transform="translate(160.298998, 17.250949)"><g><path d="M 7.75 0 L 1.546875 0 C 1.328125 0 1.21875 -0.109375 1.21875 -0.328125 L 1.21875 -12.03125 C 1.21875 -12.25 1.328125 -12.359375 1.546875 -12.359375 L 3.703125 -12.359375 C 3.921875 -12.359375 4.03125 -12.25 4.03125 -12.03125 L 4.03125 -2.4375 L 7.75 -2.4375 C 7.96875 -2.4375 8.078125 -2.320312 8.078125 -2.09375 L 8.078125 -0.328125 C 8.078125 -0.109375 7.96875 0 7.75 0 Z M 7.75 0 "/></g></g></g><g fill="#f8f6e3" fill-opacity="1"><g transform="translate(171.610284, 17.250949)"><g><path d="M 7.265625 0 L 5.109375 0 C 4.878906 0 4.765625 -0.109375 4.765625 -0.328125 L 4.765625 -5.046875 L 0.234375 -11.96875 C 0.160156 -12.070312 0.144531 -12.160156 0.1875 -12.234375 C 0.226562 -12.316406 0.3125 -12.359375 0.4375 -12.359375 L 3.0625 -12.359375 C 3.238281 -12.359375 3.375 -12.285156 3.46875 -12.140625 L 6.1875 -7.609375 L 8.9375 -12.140625 C 9.03125 -12.285156 9.164062 -12.359375 9.34375 -12.359375 L 11.96875 -12.359375 C 12.101562 -12.359375 12.191406 -12.316406 12.234375 -12.234375 C 12.273438 -12.160156 12.257812 -12.070312 12.1875 -11.96875 L 7.59375 -5.046875 L 7.59375 -0.328125 C 7.59375 -0.109375 7.484375 0 7.265625 0 Z M 7.265625 0 "/></g></g></g><g fill="#f8f6e3" fill-opacity="1"><g transform="translate(188.587303, 17.250949)"><g><path d="M 5.703125 0 L 3.53125 0 C 3.3125 0 3.203125 -0.109375 3.203125 -0.328125 L 3.203125 -9.9375 L 0.625 -9.9375 C 0.40625 -9.9375 0.296875 -10.046875 0.296875 -10.265625 L 0.296875 -12.03125 C 0.296875 -12.25 0.40625 -12.359375 0.625 -12.359375 L 8.609375 -12.359375 C 8.828125 -12.359375 8.9375 -12.25 8.9375 -12.03125 L 8.9375 -10.265625 C 8.9375 -10.046875 8.828125 -9.9375 8.609375 -9.9375 L 6.03125 -9.9375 L 6.03125 -0.328125 C 6.03125 -0.109375 5.921875 0 5.703125 0 Z M 5.703125 0 "/></g></g></g><g fill="#f8f6e3" fill-opacity="1"><g transform="translate(202.393624, 17.250949)"><g><path d="M 3.703125 0 L 1.546875 0 C 1.328125 0 1.21875 -0.109375 1.21875 -0.328125 L 1.21875 -12.03125 C 1.21875 -12.25 1.328125 -12.359375 1.546875 -12.359375 L 3.703125 -12.359375 C 3.921875 -12.359375 4.03125 -12.25 4.03125 -12.03125 L 4.03125 -0.328125 C 4.03125 -0.109375 3.921875 0 3.703125 0 Z M 3.703125 0 "/></g></g></g><g fill="#f8f6e3" fill-opacity="1"><g transform="translate(212.216455, 17.250949)"><g><path d="M 7.328125 0.3125 C 6.359375 0.3125 5.46875 0.160156 4.65625 -0.140625 C 3.851562 -0.453125 3.15625 -0.890625 2.5625 -1.453125 C 1.976562 -2.023438 1.523438 -2.707031 1.203125 -3.5 C 0.878906 -4.300781 0.71875 -5.195312 0.71875 -6.1875 C 0.71875 -7.164062 0.878906 -8.050781 1.203125 -8.84375 C 1.523438 -9.644531 1.976562 -10.332031 2.5625 -10.90625 C 3.15625 -11.476562 3.851562 -11.914062 4.65625 -12.21875 C 5.46875 -12.519531 6.359375 -12.671875 7.328125 -12.671875 C 8.421875 -12.671875 9.40625 -12.476562 10.28125 -12.09375 C 11.164062 -11.707031 11.898438 -11.171875 12.484375 -10.484375 C 12.628906 -10.328125 12.613281 -10.179688 12.4375 -10.046875 L 10.671875 -8.84375 C 10.503906 -8.71875 10.351562 -8.738281 10.21875 -8.90625 C 9.875 -9.28125 9.457031 -9.570312 8.96875 -9.78125 C 8.476562 -10 7.929688 -10.109375 7.328125 -10.109375 C 6.773438 -10.109375 6.265625 -10.015625 5.796875 -9.828125 C 5.335938 -9.648438 4.9375 -9.390625 4.59375 -9.046875 C 4.257812 -8.703125 4 -8.285156 3.8125 -7.796875 C 3.625 -7.316406 3.53125 -6.78125 3.53125 -6.1875 C 3.53125 -5.582031 3.625 -5.039062 3.8125 -4.5625 C 4 -4.082031 4.257812 -3.671875 4.59375 -3.328125 C 4.9375 -2.984375 5.34375 -2.71875 5.8125 -2.53125 C 6.28125 -2.34375 6.789062 -2.25 7.34375 -2.25 C 7.9375 -2.25 8.476562 -2.351562 8.96875 -2.5625 C 9.457031 -2.78125 9.875 -3.082031 10.21875 -3.46875 C 10.351562 -3.625 10.503906 -3.644531 10.671875 -3.53125 L 12.4375 -2.328125 C 12.613281 -2.179688 12.644531 -2.039062 12.53125 -1.90625 C 11.945312 -1.21875 11.207031 -0.675781 10.3125 -0.28125 C 9.425781 0.113281 8.429688 0.3125 7.328125 0.3125 Z M 7.328125 0.3125 "/></g></g></g><g fill="#f8f6e3" fill-opacity="1"><g transform="translate(229.90165, 17.250949)"><g><path d="M 4.9375 0.3125 C 4.34375 0.3125 3.722656 0.253906 3.078125 0.140625 C 2.429688 0.0351562 1.734375 -0.140625 0.984375 -0.390625 C 0.765625 -0.460938 0.695312 -0.601562 0.78125 -0.8125 L 1.390625 -2.578125 C 1.453125 -2.773438 1.59375 -2.835938 1.8125 -2.765625 C 2.363281 -2.546875 2.910156 -2.378906 3.453125 -2.265625 C 4.003906 -2.148438 4.492188 -2.09375 4.921875 -2.09375 C 5.429688 -2.09375 5.84375 -2.179688 6.15625 -2.359375 C 6.46875 -2.535156 6.625 -2.816406 6.625 -3.203125 C 6.625 -3.429688 6.539062 -3.640625 6.375 -3.828125 C 6.207031 -4.023438 5.976562 -4.207031 5.6875 -4.375 C 5.40625 -4.539062 5.085938 -4.707031 4.734375 -4.875 C 4.378906 -5.050781 4.015625 -5.238281 3.640625 -5.4375 C 3.273438 -5.625 2.925781 -5.832031 2.59375 -6.0625 C 2.257812 -6.289062 1.960938 -6.546875 1.703125 -6.828125 C 1.441406 -7.117188 1.234375 -7.453125 1.078125 -7.828125 C 0.929688 -8.203125 0.859375 -8.632812 0.859375 -9.125 C 0.859375 -9.757812 0.972656 -10.300781 1.203125 -10.75 C 1.441406 -11.195312 1.765625 -11.5625 2.171875 -11.84375 C 2.578125 -12.132812 3.035156 -12.34375 3.546875 -12.46875 C 4.054688 -12.601562 4.585938 -12.671875 5.140625 -12.671875 C 5.460938 -12.671875 5.8125 -12.644531 6.1875 -12.59375 C 6.5625 -12.550781 6.941406 -12.484375 7.328125 -12.390625 C 7.722656 -12.304688 8.109375 -12.195312 8.484375 -12.0625 C 8.691406 -11.988281 8.757812 -11.847656 8.6875 -11.640625 L 8.15625 -9.96875 C 8.082031 -9.757812 7.945312 -9.691406 7.75 -9.765625 C 7.332031 -9.921875 6.898438 -10.046875 6.453125 -10.140625 C 6.003906 -10.234375 5.59375 -10.28125 5.21875 -10.28125 C 4.9375 -10.28125 4.679688 -10.25 4.453125 -10.1875 C 4.222656 -10.125 4.039062 -10.019531 3.90625 -9.875 C 3.78125 -9.738281 3.71875 -9.554688 3.71875 -9.328125 C 3.71875 -9.097656 3.785156 -8.894531 3.921875 -8.71875 C 4.054688 -8.539062 4.242188 -8.375 4.484375 -8.21875 C 4.722656 -8.070312 5 -7.921875 5.3125 -7.765625 C 5.625 -7.609375 5.960938 -7.445312 6.328125 -7.28125 C 6.703125 -7.09375 7.078125 -6.882812 7.453125 -6.65625 C 7.828125 -6.425781 8.164062 -6.160156 8.46875 -5.859375 C 8.78125 -5.554688 9.023438 -5.195312 9.203125 -4.78125 C 9.390625 -4.363281 9.484375 -3.878906 9.484375 -3.328125 C 9.484375 -2.785156 9.398438 -2.3125 9.234375 -1.90625 C 9.066406 -1.507812 8.832031 -1.164062 8.53125 -0.875 C 8.238281 -0.59375 7.898438 -0.363281 7.515625 -0.1875 C 7.128906 -0.0078125 6.71875 0.113281 6.28125 0.1875 C 5.84375 0.269531 5.394531 0.3125 4.9375 0.3125 Z M 4.9375 0.3125 "/></g></g></g><g fill="#f8f6e3" fill-opacity="1"><g transform="translate(244.63165, 17.250949)"><g/></g></g></g></g></svg>